<?xml version="1.0" encoding="UTF-8" standalone="no"?>
<!-- Created with Inkscape (http://www.inkscape.org/) -->

<svg
   version="1.1"
   id="svg1"
   width="202"
   height="202"
   viewBox="0 0 202 202"
   sodipodi:docname="logo.svg"
   inkscape:version="1.4.2 (ebf0e94, 2025-05-08)"
   xmlns:inkscape="http://www.inkscape.org/namespaces/inkscape"
   xmlns:sodipodi="http://sodipodi.sourceforge.net/DTD/sodipodi-0.dtd"
   xmlns="http://www.w3.org/2000/svg"
   xmlns:svg="http://www.w3.org/2000/svg">
  <defs
     id="defs1">
    <rect
       x="266.92252"
       y="172.10332"
       width="1280.059"
       height="268.87085"
       id="rect42" />
  </defs>
  <sodipodi:namedview
     id="namedview1"
     pagecolor="#505050"
     bordercolor="#ffffff"
     borderopacity="1"
     inkscape:showpageshadow="0"
     inkscape:pageopacity="0"
     inkscape:pagecheckerboard="1"
     inkscape:deskcolor="#505050"
     inkscape:zoom="3.0795455"
     inkscape:cx="181.5203"
     inkscape:cy="105.69742"
     inkscape:window-width="1920"
     inkscape:window-height="1094"
     inkscape:window-x="-11"
     inkscape:window-y="-11"
     inkscape:window-maximized="1"
     inkscape:current-layer="g1">
    <inkscape:page
       x="0"
       y="0"
       inkscape:label="1"
       id="page1"
       width="202"
       height="202"
       margin="0"
       bleed="0" />
  </sodipodi:namedview>
  <g
     id="g1"
     inkscape:groupmode="layer"
     inkscape:label="1">
    <path
       id="path1"
       d="M 199.03837,100.76919 C 199.03837,46.49594 155.04244,2.5 100.76919,2.5 46.495932,2.5 2.5,46.49594 2.5,100.76919 c 0,54.27325 43.995932,98.26918 98.26919,98.26918 54.27325,0 98.26918,-43.99593 98.26918,-98.26918 z"
       style="fill:none;stroke:#000000;stroke-width:5;stroke-linecap:butt;stroke-linejoin:miter;stroke-miterlimit:10;stroke-dasharray:none;stroke-opacity:1" />
    <path
       id="path2"
       d="M 176.36069,100.76919 154.22048,47.3179"
       style="fill:none;stroke:#000000;stroke-width:2.39106;stroke-linecap:butt;stroke-linejoin:miter;stroke-miterlimit:10;stroke-dasharray:none;stroke-opacity:1" />
    <path
       id="path3"
       d="m 163.41493,69.5152 1.5e-4,9.51982 6.73124,-2.78812 z"
       style="fill:#000000;fill-opacity:1;fill-rule:nonzero;stroke:none;stroke-width:1.99999;stroke-dasharray:none" />
    <path
       id="path4"
       d="M 154.22048,47.3179 100.76919,25.17768"
       style="fill:none;stroke:#000000;stroke-width:2.39106;stroke-linecap:butt;stroke-linejoin:miter;stroke-miterlimit:10;stroke-dasharray:none;stroke-opacity:1" />
    <path
       id="path5"
       d="m 122.96649,34.37215 6.7317,6.73137 2.78812,-6.73122 z"
       style="fill:#000000;fill-opacity:1;fill-rule:nonzero;stroke:none;stroke-width:1.99999;stroke-dasharray:none" />
    <path
       id="path6"
       d="M 100.76919,25.17768 47.317892,47.3179"
       style="fill:none;stroke:#000000;stroke-width:2.39106;stroke-linecap:butt;stroke-linejoin:miter;stroke-miterlimit:10;stroke-dasharray:none;stroke-opacity:1" />
    <path
       id="path7"
       d="m 69.515196,38.12344 9.51982,-1.4e-4 -2.78812,-6.73124 z"
       style="fill:#000000;fill-opacity:1;fill-rule:nonzero;stroke:none;stroke-width:1.99999;stroke-dasharray:none" />
    <path
       id="path8"
       d="M 47.317892,47.3179 25.177679,100.76919"
       style="fill:none;stroke:#000000;stroke-width:2.39106;stroke-linecap:butt;stroke-linejoin:miter;stroke-miterlimit:10;stroke-dasharray:none;stroke-opacity:1" />
    <path
       id="path9"
       d="m 34.372146,78.57188 6.731373,-6.73169 -6.731227,-2.78812 z"
       style="fill:#000000;fill-opacity:1;fill-rule:nonzero;stroke:none;stroke-width:1.99999;stroke-dasharray:none" />
    <path
       id="path10"
       d="m 25.177679,100.76919 22.140213,53.45129"
       style="fill:none;stroke:#000000;stroke-width:2.39106;stroke-linecap:butt;stroke-linejoin:miter;stroke-miterlimit:10;stroke-dasharray:none;stroke-opacity:1" />
    <path
       id="path11"
       d="m 38.123439,132.02317 -1.47e-4,-9.51981 -6.73124,2.78812 z"
       style="fill:#000000;fill-opacity:1;fill-rule:nonzero;stroke:none;stroke-width:1.99999;stroke-dasharray:none" />
    <path
       id="path12"
       d="m 47.317892,154.22048 53.451298,22.14021"
       style="fill:none;stroke:#000000;stroke-width:2.39106;stroke-linecap:butt;stroke-linejoin:miter;stroke-miterlimit:10;stroke-dasharray:none;stroke-opacity:1" />
    <path
       id="path13"
       d="m 78.571876,167.16623 -6.73169,-6.73138 -2.78812,6.73123 z"
       style="fill:#000000;fill-opacity:1;fill-rule:nonzero;stroke:none;stroke-width:1.99999;stroke-dasharray:none" />
    <path
       id="path14"
       d="m 100.76919,176.36069 53.45129,-22.14021"
       style="fill:none;stroke:#000000;stroke-width:2.39106;stroke-linecap:butt;stroke-linejoin:miter;stroke-miterlimit:10;stroke-dasharray:none;stroke-opacity:1" />
    <path
       id="path15"
       d="m 132.02317,163.41493 -9.51981,1.5e-4 2.78812,6.73124 z"
       style="fill:#000000;fill-opacity:1;fill-rule:nonzero;stroke:none;stroke-width:1.99999;stroke-dasharray:none" />
    <path
       id="path16"
       d="m 154.22048,154.22048 22.14021,-53.45129"
       style="fill:none;stroke:#000000;stroke-width:2.39106;stroke-linecap:butt;stroke-linejoin:miter;stroke-miterlimit:10;stroke-dasharray:none;stroke-opacity:1" />
    <path
       id="path17"
       d="m 167.16623,122.96649 -6.73138,6.7317 6.73123,2.78812 z"
       style="fill:#000000;fill-opacity:1;fill-rule:nonzero;stroke:none;stroke-width:1.99999;stroke-dasharray:none" />
    <path
       id="path18"
       d="m 138.56492,100.76919 -11.07011,26.72562"
       style="fill:none;stroke:#000000;stroke-width:2.39106;stroke-linecap:butt;stroke-linejoin:miter;stroke-miterlimit:10;stroke-dasharray:none;stroke-opacity:1" />
    <path
       id="path19"
       d="m 131.15027,118.66985 6.73138,-6.73166 -6.73124,-2.78812 z"
       style="fill:#000000;fill-opacity:1;fill-rule:nonzero;stroke:none;stroke-width:1.99999;stroke-dasharray:none" />
    <path
       id="path20"
       d="m 127.49481,127.49481 -26.72562,11.07011"
       style="fill:none;stroke:#000000;stroke-width:2.39106;stroke-linecap:butt;stroke-linejoin:miter;stroke-miterlimit:10;stroke-dasharray:none;stroke-opacity:1" />
    <path
       id="path21"
       d="m 109.59412,134.90947 9.51981,-1.2e-4 -2.78812,-6.73124 z"
       style="fill:#000000;fill-opacity:1;fill-rule:nonzero;stroke:none;stroke-width:1.99999;stroke-dasharray:none" />
    <path
       id="path22"
       d="M 100.76919,138.56492 74.043556,127.49481"
       style="fill:none;stroke:#000000;stroke-width:2.39106;stroke-linecap:butt;stroke-linejoin:miter;stroke-miterlimit:10;stroke-dasharray:none;stroke-opacity:1" />
    <path
       id="path23"
       d="m 82.868516,131.15027 6.73167,6.73138 2.78812,-6.73124 z"
       style="fill:#000000;fill-opacity:1;fill-rule:nonzero;stroke:none;stroke-width:1.99999;stroke-dasharray:none" />
    <path
       id="path24"
       d="M 74.043556,127.49481 62.973451,100.76919"
       style="fill:none;stroke:#000000;stroke-width:2.39106;stroke-linecap:butt;stroke-linejoin:miter;stroke-miterlimit:10;stroke-dasharray:none;stroke-opacity:1" />
    <path
       id="path25"
       d="m 66.628906,109.59412 1.2e-4,9.51981 6.73124,-2.78812 z"
       style="fill:#000000;fill-opacity:1;fill-rule:nonzero;stroke:none;stroke-width:1.99999;stroke-dasharray:none" />
    <path
       id="path26"
       d="M 62.973451,100.76919 74.043556,74.04356"
       style="fill:none;stroke:#000000;stroke-width:2.39106;stroke-linecap:butt;stroke-linejoin:miter;stroke-miterlimit:10;stroke-dasharray:none;stroke-opacity:1" />
    <path
       id="path27"
       d="m 70.388106,82.86852 -6.73139,6.73167 6.73124,2.78812 z"
       style="fill:#000000;fill-opacity:1;fill-rule:nonzero;stroke:none;stroke-width:1.99999;stroke-dasharray:none" />
    <path
       id="path28"
       d="M 74.043556,74.04356 100.76919,62.97346"
       style="fill:none;stroke:#000000;stroke-width:2.39106;stroke-linecap:butt;stroke-linejoin:miter;stroke-miterlimit:10;stroke-dasharray:none;stroke-opacity:1" />
    <path
       id="path29"
       d="m 91.944246,66.62891 -9.51981,1.2e-4 2.78812,6.73124 z"
       style="fill:#000000;fill-opacity:1;fill-rule:nonzero;stroke:none;stroke-width:1.99999;stroke-dasharray:none" />
    <path
       id="path30"
       d="m 100.76919,62.97346 26.72562,11.0701"
       style="fill:none;stroke:#000000;stroke-width:2.39106;stroke-linecap:butt;stroke-linejoin:miter;stroke-miterlimit:10;stroke-dasharray:none;stroke-opacity:1" />
    <path
       id="path31"
       d="m 118.66985,70.38811 -6.73166,-6.73139 -2.78812,6.73124 z"
       style="fill:#000000;fill-opacity:1;fill-rule:nonzero;stroke:none;stroke-width:1.99999;stroke-dasharray:none" />
    <path
       id="path32"
       d="m 127.49481,74.04356 11.07011,26.72563"
       style="fill:none;stroke:#000000;stroke-width:2.39106;stroke-linecap:butt;stroke-linejoin:miter;stroke-miterlimit:10;stroke-dasharray:none;stroke-opacity:1" />
    <path
       id="path33"
       d="m 134.90947,91.94426 -1.2e-4,-9.51982 -6.73124,2.78812 z"
       style="fill:#000000;fill-opacity:1;fill-rule:nonzero;stroke:none;stroke-width:1.99999;stroke-dasharray:none" />
    <path
       id="path34"
       d="m 176.36069,100.76919 0.6012,-0.25681 0.24282,-1.02202 0.30141,-0.81997 0.44749,-0.47884 0.64687,-0.0979 0.84547,0.21489 0.98124,0.37432 1.00838,0.33744 0.9074,0.11632 0.6942,-0.22721 0.4173,-0.59907 0.15033,-0.90345 -0.035,-1.06301 -0.0824,-1.0458 0.0271,-0.86832 0.26854,-0.59024 0.57689,-0.29455 0.86569,-0.0662 1.04826,0.0339 1.06406,-0.0163 0.89571,-0.19521 0.57892,-0.44932 0.19201,-0.70735 -0.16485,-0.90113 -0.39384,-0.98839 -0.43304,-0.95584 -0.26973,-0.8258 0.0527,-0.64736 0.44418,-0.474 0.79401,-0.35644 0.99949,-0.31903 0.99774,-0.36664 0.7806,-0.47577 0.39944,-0.60779 -0.0477,-0.72597 -0.44419,-0.79765 -0.68536,-0.81195 -0.70821,-0.77528 -0.50883,-0.70895 -0.14411,-0.64 0.28388,-0.59214 0.65538,-0.57792 0.86534,-0.59607 0.85279,-0.63304 0.61684,-0.66825 0.21727,-0.68654 -0.24182,-0.67804 -0.63997,-0.64541 -0.87379,-0.60236 -0.88409,-0.5684 -0.67255,-0.56115 -0.30013,-0.58933 0.12864,-0.64897 0.49499,-0.7228 0.69732,-0.7873 0.67948,-0.81488 0.44454,-0.7907 0.0539,-0.71499 -0.38902,-0.60148 -0.7682,-0.48119 -0.98593,-0.39096 -0.98835,-0.3597 -0.77974,-0.40122 -0.42204,-0.512 -0.0156,-0.6635 0.3273,-0.81407 0.51279,-0.91805 0.4906,-0.94024 0.26696,-0.86628 -0.0978,-0.70843 -0.50731,-0.50563 -0.85264,-0.30865 -1.04604,-0.17361 -1.04185,-0.14247 -0.84668,-0.22667 -0.52067,-0.41013 -0.15607,-0.64432 0.1467,-0.86375 0.30397,-1.00622 0.27547,-1.02456 0.0708,-0.90534 -0.25301,-0.6725 -0.60829,-0.38308 -0.90179,-0.11263 -1.05932,0.0652 -1.04615,0.0993 -0.87424,-0.0237 -0.59852,-0.27427 -0.29957,-0.58561 -0.0622,-0.87212 0.0516,-1.04943 0.0136,-1.06215 -0.16085,-0.89718 -0.42,-0.59034 -0.69165,-0.21757 -0.9041,0.12391 -1.00602,0.3427 -0.97866,0.37883 -0.84301,0.2192 -0.64564,-0.0938 -0.44705,-0.47382 -0.30483,-0.81478 -0.25481,-1.01766 -0.30355,-1.01888 -0.42863,-0.80896 -0.58785,-0.43632 -0.73211,0.005 -0.82441,0.4002 -0.84677,0.64442 -0.80378,0.6739 -0.72178,0.48234 -0.63511,0.12451 -0.57469,-0.29832 -0.55804,-0.66591 -0.58254,-0.87274 -0.632,-0.85635 -0.67884,-0.6156 -0.70224,-0.21039 -0.68702,0.25418 -0.63915,0.65673 -0.57671,0.89344 -0.52984,0.90612 -0.52033,0.69743 -0.56113,0.33034 -0.6455,-0.0901 -0.74862,-0.44541 -0.83507,-0.63634 -0.87069,-0.60961 -0.83407,-0.37116 -0.72421,0.0154 -0.72771,2.06119"
       style="fill:none;stroke:#000000;stroke-width:2.39106;stroke-linecap:butt;stroke-linejoin:miter;stroke-miterlimit:10;stroke-dasharray:none;stroke-opacity:1" />
    <path
       id="path35"
       d="m 154.22048,47.3179 0.24347,-0.60671 -0.55096,-0.89441 -0.36672,-0.7929 -0.0221,-0.655 0.3882,-0.52668 0.74972,-0.44585 0.95858,-0.42916 0.95164,-0.47449 0.72393,-0.55938 0.33012,-0.6516 -0.12856,-0.71862 -0.53251,-0.74512 -0.77641,-0.72687 -0.79776,-0.68121 -0.59483,-0.63318 -0.22748,-0.60726 0.19962,-0.61622 0.56536,-0.6589 0.76518,-0.71728 0.74094,-0.76388 0.49532,-0.77132 0.0916,-0.7271 -0.36436,-0.63597 -0.75403,-0.52195 -0.97748,-0.42038 -0.98209,-0.36964 -0.77513,-0.39424 -0.42046,-0.49504 -0.0212,-0.64919 0.30981,-0.81244 0.48113,-0.93235 0.44622,-0.96477 0.2155,-0.88835 -0.14736,-0.71224 -0.54705,-0.47957 -0.8782,-0.24993 -1.05877,-0.0895 -1.04903,-0.0474 -0.86115,-0.14148 -0.5544,-0.35064 -0.218,-0.61943 0.0547,-0.87202 0.1904,-1.03339 0.15533,-1.05061 -0.0364,-0.90867 -0.33194,-0.63917 -0.65042,-0.30846 -0.9089,-0.004 -1.04374,0.19197 -1.02708,0.22331 -0.87226,0.0788 -0.62902,-0.2045 -0.36794,-0.54984 -0.16116,-0.86115 -0.0626,-1.04903 -0.0958,-1.05666 -0.24475,-0.87347 -0.46629,-0.54299 -0.70036,-0.15024 -0.88344,0.20295 -0.97363,0.42063 -0.95319,0.44454 -0.83506,0.26764 -0.66048,-0.0636 -0.4802,-0.45821 -0.34415,-0.80707 -0.28657,-1.01173 -0.31798,-1.0118 -0.42373,-0.80137 -0.57008,-0.43178 -0.71627,0.001 -0.82114,0.38467 -0.8637,0.61652 -0.83738,0.63596 -0.76019,0.43813 -0.65819,0.0782 -0.566,-0.34527 -0.50836,-0.71464 -0.49658,-0.9264 -0.52982,-0.91921 -0.59017,-0.69019 -0.65447,-0.29657 -0.70102,0.1593 -0.7172,0.55804 -0.70284,0.79527 -0.66938,0.81003 -0.63494,0.60148 -0.61714,0.22932 -0.62717,-0.2021 -0.66071,-0.57266 -0.70566,-0.77844 -0.7415,-0.76054 -0.74817,-0.52054 -0.71445,-0.12039 -0.64287,0.33535 -0.5516,0.72697 -0.46891,0.95377 -0.42521,0.96027 -0.44093,0.75115 -0.52278,0.3903 -0.65112,-0.0187 -0.79177,-0.36049 -0.89985,-0.5392 -0.93523,-0.50568 -0.87509,-0.26875 -0.72419,0.10728 -0.51384,0.52155 -0.2998,0.86602 -0.14292,1.05452 -0.0916,1.04487 -0.16917,0.85151 -0.36094,0.53726 -0.61726,0.19562 -0.86548,-0.0761 -1.0291,-0.20493 -1.05149,-0.15934 -0.91535,0.045 -0.64528,0.34796 -0.306,0.66557 0.0126,0.91633 0.22416,1.03954 0.26624,1.01533 0.12539,0.86105 -0.16317,0.63043 -0.52011,0.39291 -0.84421,0.21465 -1.04048,0.14073 -1.04674,0.18488 -0.85216,0.32754 -0.501134,0.5231 0.944994,1.9677"
       style="fill:none;stroke:#000000;stroke-width:2.39106;stroke-linecap:butt;stroke-linejoin:miter;stroke-miterlimit:10;stroke-dasharray:none;stroke-opacity:1" />
    <path
       id="path36"
       d="m 100.76919,25.17768 -0.25682,-0.6012 -1.022014,-0.24281 -0.81997,-0.30141 -0.47884,-0.4475 -0.0979,-0.64686 0.21489,-0.84547 0.37432,-0.98124 0.33744,-1.00839 0.11632,-0.9074 -0.22721,-0.6942 -0.59907,-0.41729 -0.90345,-0.15033 -1.06302,0.035 -1.0458,0.0824 -0.86832,-0.0271 -0.59024,-0.26853 -0.29454,-0.57689 -0.0662,-0.8657 0.0339,-1.04825 -0.0163,-1.06407 -0.19522,-0.8957 -0.44932,-0.57892 -0.70734,-0.19202 -0.90114,0.16486 -0.98838,0.39384 -0.95584,0.43304 -0.8258,0.26973 -0.64736,-0.0527 -0.474,-0.44417 -0.35644,-0.79401 -0.31903,-0.9995 -0.36664,-0.99773 -0.47577,-0.7806 -0.60779,-0.39944 -0.72597,0.0477 -0.79766,0.44419 -0.81194,0.68536 -0.77528,0.70821 -0.70895,0.50883 -0.64,0.1441 -0.59214,-0.28388 -0.57792,-0.65537 -0.59607,-0.86535 -0.63304,-0.85278 -0.66825,-0.61684 -0.68654,-0.21727 -0.67804,0.24181 -0.64541,0.63998 -0.60236,0.87378 -0.5684,0.8841 -0.56115,0.67254 -0.58933,0.30014 -0.64897,-0.12864 -0.7228,-0.49499 -0.7873,-0.69732 -0.81488,-0.67948 -0.7907,-0.44455 -0.71499,-0.0539 -0.60148,0.38901 -0.48119,0.7682 -0.39096,0.98594 -0.3597,0.98834 -0.40122,0.77975 -0.512,0.42204 -0.6635,0.0156 -0.81407,-0.32731 -0.91805,-0.51278 -0.940245,-0.4906 -0.86628,-0.26696 -0.708426,0.0978 -0.505627,0.50731 -0.308653,0.85264 -0.173613,1.04604 -0.142467,1.04185 -0.226667,0.84668 -0.410133,0.52067 -0.64432,0.15606 -0.863747,-0.14669 -1.006226,-0.30397 -1.02456,-0.27547 -0.905334,-0.0708 -0.672506,0.25302 -0.38308,0.60829 -0.112627,0.90179 0.06524,1.05932 0.09933,1.04614 -0.02371,0.87424 -0.274267,0.59852 -0.585613,0.29958 -0.87212,0.0622 -1.049427,-0.0516 -1.062147,-0.0136 -0.897186,0.16086 -0.590334,0.42 -0.217573,0.69165 0.123907,0.90409 0.342706,1.00603 0.378827,0.97865 0.2192,0.84302 -0.09381,0.64564 -0.473814,0.44705 -0.814786,0.30483 -1.017653,0.25481 -1.01888,0.30355 -0.80896,0.42862 -0.43632,0.58786 0.0053,0.7321 0.4002,0.82442 0.644427,0.84677 0.673893,0.80377 0.482347,0.72179 0.124506,0.63511 -0.29832,0.57469 -0.665906,0.55804 -0.872747,0.58253 -0.856347,0.632 -0.6156,0.67884 -0.210386,0.70224 0.254173,0.68703 0.656733,0.63915 0.89344,0.5767 0.90612,0.52984 0.697427,0.52034 0.330347,0.56113 -0.09005,0.64549 -0.445413,0.74863 -0.636333,0.83507 -0.609614,0.87069 -0.37116,0.83407 0.01545,0.72421 2.061186,0.72771"
       style="fill:none;stroke:#000000;stroke-width:2.39106;stroke-linecap:butt;stroke-linejoin:miter;stroke-miterlimit:10;stroke-dasharray:none;stroke-opacity:1" />
    <path
       id="path37"
       d="m 47.317892,47.3179 -0.606707,-0.24347 -0.894413,0.55096 -0.792893,0.36672 -0.655,0.0221 -0.52668,-0.3882 -0.445854,-0.74972 -0.42916,-0.95857 -0.474493,-0.95164 -0.559373,-0.72393 -0.6516,-0.33012 -0.718627,0.12856 -0.74512,0.5325 -0.726867,0.77642 -0.681213,0.79776 -0.633173,0.59482 -0.607267,0.22748 -0.616213,-0.19961 -0.658907,-0.56536 -0.71728,-0.76519 -0.76388,-0.74093 -0.77132,-0.49532 -0.727093,-0.0916 -0.635973,0.36436 -0.521947,0.75402 -0.420387,0.97748 -0.36964,0.9821 -0.39424,0.77513 -0.49504,0.42045 -0.649186,0.0212 -0.81244,-0.30981 -0.932347,-0.48114 -0.964773,-0.44621 -0.888347,-0.21551 -0.71224,0.14736 -0.479573,0.54706 -0.249934,0.8782 -0.08945,1.05877 -0.04741,1.04903 -0.14148,0.86114 -0.35064,0.5544 -0.619427,0.218 -0.872027,-0.0547 -1.033386,-0.1904 -1.050613,-0.15533 -0.908667,0.0364 -0.639173,0.33193 -0.308454,0.65043 -0.0037,0.90889 0.191973,1.04375 0.223307,1.02708 0.07881,0.87225 -0.204506,0.62903 -0.54984,0.36793 -0.861147,0.16116 -1.049027,0.0626 -1.056666,0.0958 -0.873467,0.24475 -0.542987,0.46629 -0.15024,0.70036 0.202947,0.88344 0.420627,0.97363 0.444546,0.95318 0.26764,0.83507 -0.06364,0.66048 -0.458213,0.4802 -0.807067,0.34415 -1.011733,0.28657 -1.0118,0.31797 -0.801373,0.42374 -0.431774,0.57008 0.0012,0.71626 0.384667,0.82115 0.61652,0.86369 0.63596,0.83739 0.438133,0.76019 0.07817,0.65818 -0.345267,0.566 -0.71464,0.50836 -0.9264,0.49659 -0.919213,0.52981 -0.690187,0.59018 -0.296573,0.65446 0.159306,0.70103 0.55804,0.7172 0.795267,0.70284 0.810027,0.66937 0.60148,0.63495 0.22932,0.61713 -0.202094,0.62718 -0.572666,0.6607 -0.77844,0.70567 -0.760534,0.74149 -0.520546,0.74818 -0.120387,0.71445 0.335347,0.64287 0.726973,0.5516 0.953773,0.4689 0.960267,0.42522 0.751147,0.44093 0.390306,0.52277 -0.01869,0.65112 -0.360493,0.79178 -0.5392,0.89985 -0.505654,0.93523 -0.268746,0.87509 0.10728,0.72419 0.521546,0.51384 0.866027,0.2998 1.05452,0.14292 1.044867,0.0916 0.851506,0.16917 0.537267,0.36093 0.195613,0.61727 -0.07615,0.86548 -0.204934,1.02909 -0.159333,1.0515 0.04497,0.91534 0.34796,0.64528 0.665574,0.306 0.916333,-0.0126 1.039533,-0.22416 1.015334,-0.26624 0.861053,-0.12538 0.630426,0.16317 0.392907,0.52011 0.214653,0.84421 0.140734,1.04048 0.18488,1.04673 0.327533,0.85216 0.523107,0.50114 1.967666,-0.94499"
       style="fill:none;stroke:#000000;stroke-width:2.39106;stroke-linecap:butt;stroke-linejoin:miter;stroke-miterlimit:10;stroke-dasharray:none;stroke-opacity:1" />
    <path
       id="path38"
       d="m 25.177679,100.76919 -0.6012,0.25681 -0.242813,1.02202 -0.301414,0.81997 -0.447493,0.47884 -0.646867,0.0979 -0.845466,-0.21489 -0.98124,-0.37432 -1.008387,-0.33744 -0.9074,-0.11632 -0.6942,0.22721 -0.417293,0.59907 -0.150333,0.90345 0.03501,1.06301 0.0824,1.0458 -0.02711,0.86832 -0.268533,0.59024 -0.576893,0.29455 -0.865694,0.0662 -1.048253,-0.0339 -1.064067,0.0163 -0.895706,0.19521 -0.57892,0.44932 -0.192014,0.70735 0.164854,0.90113 0.39384,0.98839 0.43304,0.95584 0.269733,0.8258 -0.05275,0.64736 -0.444173,0.474 -0.794013,0.35644 -0.999494,0.31902 -0.997733,0.36664 -0.7806,0.47578 -0.39944,0.60778 0.04772,0.72598 0.444187,0.79765 0.68536,0.81195 0.708213,0.77528 0.508827,0.70894 0.144106,0.64 -0.28388,0.59215 -0.655373,0.57792 -0.865347,0.59607 -0.852786,0.63304 -0.61684,0.66825 -0.217267,0.68653 0.241813,0.67804 0.639974,0.64542 0.873786,0.60236 0.884094,0.5684 0.672546,0.56114 0.300134,0.58934 -0.12864,0.64897 -0.494987,0.7228 -0.69732,0.78729 -0.67948,0.81488 -0.444547,0.79071 -0.05389,0.71499 0.389013,0.60148 0.7682,0.48118 0.985934,0.39096 0.988346,0.35971 0.779747,0.40121 0.42204,0.512 0.0156,0.66351 -0.327307,0.81407 -0.512786,0.91805 -0.4906,0.94024 -0.26696,0.86628 0.09781,0.70843 0.507307,0.50562 0.85264,0.30866 1.04604,0.17361 1.041853,0.14247 0.84668,0.22666 0.520667,0.41014 0.156066,0.64432 -0.146693,0.86374 -0.303973,1.00623 -0.275467,1.02456 -0.07079,0.90533 0.253014,0.67251 0.608293,0.38308 0.901787,0.11263 1.05932,-0.0652 1.046146,-0.0993 0.87424,0.0237 0.59852,0.27427 0.299573,0.58561 0.06221,0.87212 -0.05157,1.04943 -0.01357,1.06214 0.160853,0.89719 0.42,0.59033 0.691654,0.21758 0.904093,-0.12391 1.006027,-0.34271 0.978653,-0.37882 0.843013,-0.2192 0.64564,0.0938 0.447054,0.47381 0.304826,0.81479 0.254814,1.01765 0.303546,1.01888 0.428627,0.80896 0.587853,0.43632 0.732107,-0.005 0.824413,-0.4002 0.846774,-0.64443 0.803773,-0.67389 0.721787,-0.48235 0.635106,-0.1245 0.574693,0.29832 0.55804,0.6659 0.582534,0.87275 0.632,0.85635 0.67884,0.6156 0.70224,0.21038 0.687026,-0.25417 0.639147,-0.65673 0.576707,-0.89344 0.52984,-0.90612 0.520333,-0.69743 0.561133,-0.33035 0.645494,0.0901 0.748626,0.44541 0.835067,0.63633 0.870693,0.60962 0.834067,0.37116 0.724213,-0.0155 0.727707,-2.06118"
       style="fill:none;stroke:#000000;stroke-width:2.39106;stroke-linecap:butt;stroke-linejoin:miter;stroke-miterlimit:10;stroke-dasharray:none;stroke-opacity:1" />
    <path
       id="path39"
       d="m 47.317892,154.22048 -0.243467,0.60671 0.55096,0.89441 0.36672,0.79289 0.02213,0.655 -0.388199,0.52668 -0.74972,0.44586 -0.958574,0.42916 -0.95164,0.47449 -0.723933,0.55937 -0.33012,0.6516 0.12856,0.71863 0.532507,0.74512 0.776413,0.72687 0.79776,0.68121 0.594827,0.63317 0.22748,0.60727 -0.199614,0.61621 -0.56536,0.65891 -0.765186,0.71728 -0.740934,0.76388 -0.49532,0.77132 -0.09157,0.72709 0.36436,0.63598 0.754027,0.52194 0.97748,0.42039 0.982093,0.36964 0.775133,0.39424 0.420453,0.49504 0.02119,0.64919 -0.309813,0.81244 -0.481133,0.93234 -0.446214,0.96478 -0.215506,0.88834 0.14736,0.71224 0.547053,0.47958 0.8782,0.24993 1.058773,0.0894 1.049027,0.0474 0.861146,0.14148 0.5544,0.35064 0.218,0.61942 -0.05469,0.87203 -0.1904,1.03339 -0.155333,1.05061 0.03637,0.90867 0.331933,0.63917 0.650427,0.30845 0.908893,0.004 1.043747,-0.19198 1.02708,-0.2233 0.872253,-0.0788 0.629027,0.20451 0.367933,0.54984 0.16116,0.86115 0.06257,1.04902 0.09581,1.05667 0.244747,0.87347 0.466293,0.54298 0.70036,0.15024 0.88344,-0.20294 0.973626,-0.42063 0.953187,-0.44455 0.835072,-0.26764 0.66048,0.0636 0.4802,0.45822 0.34415,0.80706 0.28657,1.01174 0.31797,1.0118 0.42374,0.80137 0.57008,0.43177 0.71626,-0.001 0.82115,-0.38466 0.86369,-0.61652 0.83739,-0.63596 0.76019,-0.43814 0.65818,-0.0782 0.566,0.34527 0.50836,0.71464 0.49659,0.9264 0.52981,0.91921 0.59018,0.69019 0.65446,0.29657 0.70103,-0.15931 0.7172,-0.55804 0.70284,-0.79526 0.66937,-0.81003 0.63495,-0.60148 0.61713,-0.22932 0.62718,0.20209 0.6607,0.57267 0.70567,0.77844 0.74149,0.76053 0.74817,0.52055 0.71446,0.12039 0.64286,-0.33535 0.5516,-0.72697 0.46891,-0.95378 0.42521,-0.96026 0.44094,-0.75115 0.52277,-0.39031 0.65112,0.0187 0.79177,0.36049 0.89986,0.5392 0.93522,0.50565 0.8751,0.26875 0.72418,-0.10728 0.51384,-0.52155 0.2998,-0.86602 0.14292,-1.05452 0.0916,-1.04487 0.16918,-0.85151 0.36093,-0.53726 0.61727,-0.19562 0.86548,0.0761 1.02909,0.20493 1.05149,0.15934 0.91535,-0.045 0.64528,-0.34796 0.306,-0.66557 -0.0126,-0.91633 -0.22416,-1.03954 -0.26624,-1.01533 -0.12539,-0.86105 0.16318,-0.63043 0.5201,-0.39291 0.84422,-0.21465 1.04048,-0.14073 1.046734,-0.18488 0.85216,-0.32754 0.50113,-0.5231 -0.94498,-1.96767"
       style="fill:none;stroke:#000000;stroke-width:2.39106;stroke-linecap:butt;stroke-linejoin:miter;stroke-miterlimit:10;stroke-dasharray:none;stroke-opacity:1" />
    <path
       id="path40"
       d="m 100.76919,176.36069 0.25681,0.6012 1.02201,0.24282 0.81998,0.30141 0.47884,0.44749 0.0979,0.64687 -0.2149,0.84547 -0.37432,0.98124 -0.33744,1.00838 -0.11632,0.9074 0.22722,0.6942 0.59906,0.4173 0.90346,0.15033 1.06301,-0.035 1.0458,-0.0824 0.86832,0.0271 0.59024,0.26854 0.29455,0.57689 0.0662,0.86569 -0.0339,1.04826 0.0163,1.06406 0.19521,0.89571 0.44932,0.57892 0.70735,0.19201 0.90113,-0.16485 0.98839,-0.39384 0.95584,-0.43304 0.8258,-0.26973 0.64736,0.0527 0.474,0.44418 0.35644,0.79401 0.31902,0.99949 0.36664,0.99774 0.47578,0.7806 0.60778,0.39944 0.72598,-0.0477 0.79765,-0.44419 0.81195,-0.68536 0.77528,-0.70821 0.70894,-0.50883 0.64,-0.14411 0.59215,0.28388 0.57792,0.65538 0.59607,0.86534 0.63304,0.85279 0.66825,0.61684 0.68653,0.21727 0.67804,-0.24182 0.64542,-0.63997 0.60236,-0.87379 0.5684,-0.88409 0.56114,-0.67255 0.58934,-0.30013 0.64897,0.12864 0.7228,0.49499 0.78729,0.69732 0.81488,0.67948 0.79071,0.44454 0.71499,0.0539 0.60148,-0.38902 0.48118,-0.7682 0.39096,-0.98593 0.35971,-0.98835 0.40121,-0.77974 0.512,-0.42204 0.66351,-0.0156 0.81407,0.3273 0.91805,0.51279 0.94024,0.4906 0.86628,0.26696 0.70843,-0.0978 0.50562,-0.50731 0.30866,-0.85264 0.17361,-1.04604 0.14247,-1.04185 0.22666,-0.84668 0.41014,-0.52067 0.64432,-0.15607 0.86374,0.1467 1.00623,0.30397 1.02456,0.27547 0.90533,0.0708 0.67251,-0.25301 0.38308,-0.60829 0.11263,-0.90179 -0.0652,-1.05932 -0.0993,-1.04615 0.0237,-0.87424 0.27427,-0.59852 0.58561,-0.29957 0.87212,-0.0622 1.04943,0.0516 1.06214,0.0136 0.89719,-0.16085 0.59033,-0.42 0.21758,-0.69165 -0.12391,-0.9041 -0.34271,-1.00602 -0.37882,-0.97866 -0.2192,-0.84301 0.0938,-0.64564 0.47381,-0.44705 0.81479,-0.30483 1.01765,-0.25481 1.01888,-0.30355 0.80896,-0.42863 0.43632,-0.58785 -0.005,-0.73211 -0.4002,-0.82441 -0.64443,-0.84677 -0.67389,-0.80378 -0.48235,-0.72178 -0.1245,-0.63511 0.29832,-0.57469 0.6659,-0.55804 0.87275,-0.58254 0.85635,-0.632 0.6156,-0.67884 0.21038,-0.70224 -0.25417,-0.68702 -0.65673,-0.63915 -0.89344,-0.57671 -0.90612,-0.52984 -0.69743,-0.52033 -0.33035,-0.56113 0.0901,-0.6455 0.44541,-0.74862 0.63633,-0.83507 0.60962,-0.87069 0.37116,-0.83407 -0.0155,-0.72421 -2.06118,-0.72771"
       style="fill:none;stroke:#000000;stroke-width:2.39106;stroke-linecap:butt;stroke-linejoin:miter;stroke-miterlimit:10;stroke-dasharray:none;stroke-opacity:1" />
    <path
       id="path41"
       d="m 154.22048,154.22048 0.60671,0.24347 0.89441,-0.55096 0.79289,-0.36672 0.655,-0.0221 0.52668,0.3882 0.44586,0.74972 0.42916,0.95858 0.47449,0.95164 0.55937,0.72393 0.6516,0.33012 0.71863,-0.12856 0.74512,-0.53251 0.72687,-0.77641 0.68121,-0.79776 0.63317,-0.59483 0.60727,-0.22748 0.61621,0.19962 0.65891,0.56536 0.71728,0.76518 0.76388,0.74094 0.77132,0.49532 0.72709,0.0916 0.63598,-0.36436 0.52194,-0.75403 0.42039,-0.97748 0.36964,-0.98209 0.39424,-0.77513 0.49504,-0.42046 0.64919,-0.0212 0.81244,0.30981 0.93234,0.48113 0.96478,0.44622 0.88834,0.2155 0.71224,-0.14736 0.47958,-0.54705 0.24993,-0.8782 0.0894,-1.05877 0.0474,-1.04903 0.14148,-0.86115 0.35064,-0.5544 0.61942,-0.218 0.87203,0.0547 1.03339,0.1904 1.05061,0.15533 0.90867,-0.0364 0.63917,-0.33194 0.30845,-0.65042 0.004,-0.9089 -0.19198,-1.04374 -0.2233,-1.02708 -0.0788,-0.87226 0.20451,-0.62902 0.54984,-0.36794 0.86115,-0.16116 1.04902,-0.0626 1.05667,-0.0958 0.87347,-0.24475 0.54298,-0.46629 0.15024,-0.70036 -0.20294,-0.88344 -0.42063,-0.97363 -0.44455,-0.95319 -0.26764,-0.83506 0.0636,-0.66048 0.45822,-0.4802 0.80706,-0.34415 1.01174,-0.28657 1.0118,-0.31798 0.80137,-0.42373 0.43177,-0.57008 -0.001,-0.71627 -0.38466,-0.82114 -0.61652,-0.8637 -0.63596,-0.83738 -0.43814,-0.76019 -0.0782,-0.65819 0.34527,-0.566 0.71464,-0.50836 0.9264,-0.49658 0.91921,-0.52982 0.69019,-0.59017 0.29657,-0.65447 -0.15931,-0.70102 -0.55804,-0.7172 -0.79526,-0.70284 -0.81003,-0.66938 -0.60148,-0.63494 -0.22932,-0.61714 0.20209,-0.62717 0.57267,-0.66071 0.77844,-0.70566 0.76053,-0.7415 0.52055,-0.74817 0.12039,-0.71445 -0.33535,-0.64287 -0.72697,-0.5516 -0.95378,-0.46891 -0.96026,-0.42521 -0.75115,-0.44093 -0.39031,-0.52278 0.0187,-0.65112 0.36049,-0.79177 0.5392,-0.89985 0.50565,-0.93523 0.26875,-0.87509 -0.10728,-0.72419 -0.52155,-0.51384 -0.86602,-0.2998 -1.05452,-0.14292 -1.04487,-0.0916 -0.85151,-0.16917 -0.53726,-0.36093 -0.19562,-0.61727 0.0762,-0.86548 0.20493,-1.02909 0.15934,-1.0515 -0.045,-0.91534 -0.34796,-0.64528 -0.66557,-0.306 -0.91633,0.0126 -1.03954,0.22416 -1.01533,0.26624 -0.86105,0.12538 -0.63043,-0.16317 -0.39291,-0.52011 -0.21465,-0.84421 -0.14073,-1.04048 -0.18488,-1.04673 -0.32751,-0.85216 -0.52311,-0.50114 -1.96769,0.94499"
       style="fill:none;stroke:#000000;stroke-width:2.39106;stroke-linecap:butt;stroke-linejoin:miter;stroke-miterlimit:10;stroke-dasharray:none;stroke-opacity:1" />
    <path
       id="path42"
       d="m 372.72078,783.63769 v -0.40625 h -0.42188 c -1.20312,0 -1.23437,-0.15625 -1.23437,-0.64063 v -7.45312 c 0,-0.3125 0,-0.34375 -0.3125,-0.34375 -0.8125,0.84375 -1.98438,0.84375 -2.40625,0.84375 v 0.42187 c 0.26562,0 1.04687,0 1.73437,-0.34375 v 6.875 c 0,0.46875 -0.0469,0.64063 -1.23437,0.64063 h -0.42188 v 0.40625 c 0.46875,-0.0469 1.60938,-0.0469 2.14063,-0.0469 0.53125,0 1.6875,0 2.15625,0.0469 z m 0,0"
       style="fill:#000000;fill-opacity:1;fill-rule:nonzero;stroke:none;stroke-width:1.33333"
       aria-label="1" />
    <text
       xml:space="preserve"
       id="text42"
       style="font-size:133.333px;font-family:Georgia;-inkscape-font-specification:Georgia;text-align:start;writing-mode:lr-tb;direction:ltr;white-space:pre;shape-inside:url(#rect42);fill:#000000;stroke-width:2.124;stroke-dasharray:none"
       transform="translate(-53.717987,-152.91022)"><tspan
         x="266.92188"
         y="292.39924"
         id="tspan1">Kozik Group</tspan></text>
    <text
       xml:space="preserve"
       style="font-size:133.333px;font-family:Georgia;-inkscape-font-specification:Georgia;text-align:start;writing-mode:lr-tb;direction:ltr;text-anchor:start;fill:#000000;stroke-width:2.12409"
       x="575.41052"
       y="352.70844"
       id="text43"><tspan
         sodipodi:role="line"
         id="tspan43"
         x="575.41052"
         y="352.70844" /></text>
  </g>
</svg>
